ISO-10303-21;
HEADER;
FILE_DESCRIPTION (( 'STEP AP214' ),
    '1' );
FILE_NAME ('Base.STEP',
    '2026-08-13T14:50:16',
    ( '' ),
    ( '' ),
    'SwSTEP 2.0',
    'SolidWorks 2024',
    '' );
FILE_SCHEMA (( 'AUTOMOTIVE_DESIGN' ));
ENDSEC;

DATA;
#1 = EDGE_LOOP ( 'NONE', ( #399, #184 ) ) ;
#2 = EDGE_CURVE ( 'NONE', #359, #113, #445, .T. ) ;
#3 = CARTESIAN_POINT ( 'NONE',  ( -33.62501349999999434, 0.000000000000000000, 39.97273249999999223 ) ) ;
#4 = ORIENTED_EDGE ( 'NONE', *, *, #93, .T. ) ;
#5 = CYLINDRICAL_SURFACE ( 'NONE', #22, 2.250000000000001776 ) ;
#6 = VERTEX_POINT ( 'NONE', #84 ) ;
#7 = EDGE_CURVE ( 'NONE', #421, #328, #384, .T. ) ;
#8 = FACE_OUTER_BOUND ( 'NONE', #68, .T. ) ;
#9 = SURFACE_STYLE_FILL_AREA ( #411 ) ;
#10 = VECTOR ( 'NONE', #475, 1000.000000000000000 ) ;
#11 = DIRECTION ( 'NONE',  ( 0.000000000000000000, 1.000000000000000000, 0.000000000000000000 ) ) ;
#12 = FACE_BOUND ( 'NONE', #439, .T. ) ;
#13 = PLANE ( 'NONE',  #201 ) ;
#14 = CIRCLE ( 'NONE', #313, 2.250000000000001776 ) ;
#15 = ADVANCED_FACE ( 'NONE', ( #381 ), #233, .F. ) ;
#16 = SHAPE_DEFINITION_REPRESENTATION ( #216, #168 ) ;
#17 = LINE ( 'NONE', #432, #355 ) ;
#18 = DIRECTION ( 'NONE',  ( 0.000000000000000000, 1.000000000000000000, 0.000000000000000000 ) ) ;
#19 = EDGE_CURVE ( 'NONE', #140, #433, #459, .T. ) ;
#20 = CIRCLE ( 'NONE', #40, 2.250000000000001776 ) ;
#21 = DIRECTION ( 'NONE',  ( 0.000000000000000000, 0.000000000000000000, -1.000000000000000000 ) ) ;
#22 = AXIS2_PLACEMENT_3D ( 'NONE', #317, #204, #388 ) ;
#23 = DIRECTION ( 'NONE',  ( -0.000000000000000000, -1.000000000000000000, -0.000000000000000000 ) ) ;
#24 = VECTOR ( 'NONE', #286, 1000.000000000000000 ) ;
#25 = ORIENTED_EDGE ( 'NONE', *, *, #137, .T. ) ;
#26 = CARTESIAN_POINT ( 'NONE',  ( 33.62501350000000855, 4.000000000000000000, 44.47273249999999223 ) ) ;
#27 = ADVANCED_FACE ( 'NONE', ( #46 ), #13, .F. ) ;
#28 = APPLICATION_CONTEXT ( 'automotive_design' ) ;
#29 = EDGE_LOOP ( 'NONE', ( #108, #479 ) ) ;
#30 = LINE ( 'NONE', #33, #468 ) ;
#31 = VERTEX_POINT ( 'NONE', #413 ) ;
#32 = ORIENTED_EDGE ( 'NONE', *, *, #109, .F. ) ;
#33 = CARTESIAN_POINT ( 'NONE',  ( -43.62501350000000855, 4.000000000000000000, -52.22273250000000644 ) ) ;
#34 = EDGE_LOOP ( 'NONE', ( #331, #72, #379, #42 ) ) ;
#35 = EDGE_LOOP ( 'NONE', ( #123, #402, #185, #158 ) ) ;
#36 = AXIS2_PLACEMENT_3D ( 'NONE', #89, #203, #128 ) ;
#37 = FACE_OUTER_BOUND ( 'NONE', #477, .T. ) ;
#38 = EDGE_CURVE ( 'NONE', #328, #288, #454, .T. ) ;
#39 = ORIENTED_EDGE ( 'NONE', *, *, #305, .F. ) ;
#40 = AXIS2_PLACEMENT_3D ( 'NONE', #176, #134, #280 ) ;
#41 = DIRECTION ( 'NONE',  ( 0.000000000000000000, 0.000000000000000000, 1.000000000000000000 ) ) ;
#42 = ORIENTED_EDGE ( 'NONE', *, *, #400, .F. ) ;
#43 = SURFACE_SIDE_STYLE ('',( #9 ) ) ;
#44 = DIRECTION ( 'NONE',  ( 0.000000000000000000, 0.000000000000000000, 1.000000000000000000 ) ) ;
#45 = FACE_OUTER_BOUND ( 'NONE', #111, .T. ) ;
#46 = FACE_OUTER_BOUND ( 'NONE', #119, .T. ) ;
#47 = CARTESIAN_POINT ( 'NONE',  ( -33.62501349999999434, 4.000000000000000000, 42.22273249999999223 ) ) ;
#48 = CARTESIAN_POINT ( 'NONE',  ( -43.62501349999999434, 4.000000000000000000, 52.22273249999999223 ) ) ;
#49 = COLOUR_RGB ( '',0.7921568627450980005, 0.8196078431372548767, 0.9333333333333333481 ) ;
#50 = DIRECTION ( 'NONE',  ( 0.000000000000000000, -0.000000000000000000, 1.000000000000000000 ) ) ;
#51 = VECTOR ( 'NONE', #251, 1000.000000000000000 ) ;
#52 = ORIENTED_EDGE ( 'NONE', *, *, #423, .F. ) ;
#53 = PRODUCT_DEFINITION ( 'NON CONOSCIUTO', '', #290, #150 ) ;
#54 = ADVANCED_FACE ( 'NONE', ( #8 ), #193, .F. ) ;
#55 = CYLINDRICAL_SURFACE ( 'NONE', #228, 2.250000000000001776 ) ;
#56 = ADVANCED_FACE ( 'NONE', ( #457 ), #88, .F. ) ;
#57 = DIRECTION ( 'NONE',  ( -0.000000000000000000, -1.000000000000000000, -0.000000000000000000 ) ) ;
#58 = AXIS2_PLACEMENT_3D ( 'NONE', #401, #103, #398 ) ;
#59 = CARTESIAN_POINT ( 'NONE',  ( -33.62501349999998723, 0.000000000000000000, -44.47273250000000644 ) ) ;
#60 = AXIS2_PLACEMENT_3D ( 'NONE', #261, #272, #347 ) ;
#61 = DIRECTION ( 'NONE',  ( 1.000000000000000000, 0.000000000000000000, 0.000000000000000000 ) ) ;
#62 = ORIENTED_EDGE ( 'NONE', *, *, #456, .T. ) ;
#63 = CARTESIAN_POINT ( 'NONE',  ( -43.62501350000000855, 0.000000000000000000, -52.22273250000000644 ) ) ;
#64 = PRODUCT_RELATED_PRODUCT_CATEGORY ( 'part', '', ( #282 ) ) ;
#65 = EDGE_LOOP ( 'NONE', ( #77, #471, #442, #364 ) ) ;
#66 = ORIENTED_EDGE ( 'NONE', *, *, #126, .T. ) ;
#67 = DIRECTION ( 'NONE',  ( 1.328711381371556758E-16, 0.000000000000000000, 1.000000000000000000 ) ) ;
#68 = EDGE_LOOP ( 'NONE', ( #436, #32, #253, #154 ) ) ;
#69 = ORIENTED_EDGE ( 'NONE', *, *, #435, .T. ) ;
#70 = LINE ( 'NONE', #327, #387 ) ;
#71 = CIRCLE ( 'NONE', #220, 2.250000000000001776 ) ;
#72 = ORIENTED_EDGE ( 'NONE', *, *, #144, .T. ) ;
#73 = VECTOR ( 'NONE', #143, 1000.000000000000000 ) ;
#74 = CARTESIAN_POINT ( 'NONE',  ( 43.62501350000000144, 0.000000000000000000, 52.22273249999999223 ) ) ;
#75 = EDGE_CURVE ( 'NONE', #359, #329, #271, .T. ) ;
#76 = ORIENTED_EDGE ( 'NONE', *, *, #2, .T. ) ;
#77 = ORIENTED_EDGE ( 'NONE', *, *, #19, .T. ) ;
#78 = DIRECTION ( 'NONE',  ( 0.000000000000000000, 1.000000000000000000, 0.000000000000000000 ) ) ;
#79 = CARTESIAN_POINT ( 'NONE',  ( -33.62501349999998723, 4.000000000000000000, -44.47273250000000644 ) ) ;
#80 = ORIENTED_EDGE ( 'NONE', *, *, #314, .F. ) ;
#81 = LINE ( 'NONE', #415, #308 ) ;
#82 = CARTESIAN_POINT ( 'NONE',  ( -33.62501349999998723, 4.000000000000000000, -44.47273250000000644 ) ) ;
#83 = CARTESIAN_POINT ( 'NONE',  ( -43.62501350000000855, 4.000000000000000000, -52.22273250000000644 ) ) ;
#84 = CARTESIAN_POINT ( 'NONE',  ( 43.62501350000000144, 4.000000000000000000, 52.22273249999999223 ) ) ;
#85 = ORIENTED_EDGE ( 'NONE', *, *, #435, .F. ) ;
#86 =( NAMED_UNIT ( * ) PLANE_ANGLE_UNIT ( ) SI_UNIT ( $, .RADIAN. ) );
#87 = AXIS2_PLACEMENT_3D ( 'NONE', #389, #395, #470 ) ;
#88 = CYLINDRICAL_SURFACE ( 'NONE', #173, 2.250000000000001776 ) ;
#89 = CARTESIAN_POINT ( 'NONE',  ( 0.000000000000000000, 0.000000000000000000, 0.000000000000000000 ) ) ;
#90 = VECTOR ( 'NONE', #266, 1000.000000000000000 ) ;
#91 = CARTESIAN_POINT ( 'NONE',  ( 43.62501350000000144, 4.000000000000000000, 52.22273249999999223 ) ) ;
#92 = CARTESIAN_POINT ( 'NONE',  ( 33.62501350000000855, 4.000000000000000000, 42.22273249999999223 ) ) ;
#93 = EDGE_CURVE ( 'NONE', #225, #252, #367, .T. ) ;
#94 = CARTESIAN_POINT ( 'NONE',  ( -33.62501349999999434, 4.000000000000000000, 44.47273249999999223 ) ) ;
#95 = CIRCLE ( 'NONE', #383, 2.250000000000001776 ) ;
#96 = VECTOR ( 'NONE', #351, 1000.000000000000000 ) ;
#97 = CARTESIAN_POINT ( 'NONE',  ( -43.62501350000000855, 4.000000000000000000, -52.22273250000000644 ) ) ;
#98 = AXIS2_PLACEMENT_3D ( 'NONE', #478, #434, #438 ) ;
#99 = DIRECTION ( 'NONE',  ( 0.000000000000000000, 0.000000000000000000, -1.000000000000000000 ) ) ;
#100 = AXIS2_PLACEMENT_3D ( 'NONE', #101, #248, #21 ) ;
#101 = CARTESIAN_POINT ( 'NONE',  ( -33.62501349999999434, 4.000000000000000000, 42.22273249999999223 ) ) ;
#102 = EDGE_LOOP ( 'NONE', ( #166, #80, #222, #182 ) ) ;
#103 = DIRECTION ( 'NONE',  ( -0.000000000000000000, -1.000000000000000000, -0.000000000000000000 ) ) ;
#104 = ORIENTED_EDGE ( 'NONE', *, *, #131, .T. ) ;
#105 = ORIENTED_EDGE ( 'NONE', *, *, #209, .F. ) ;
#106 = CARTESIAN_POINT ( 'NONE',  ( -33.62501349999999434, 4.000000000000000000, 39.97273249999999223 ) ) ;
#107 = ORIENTED_EDGE ( 'NONE', *, *, #319, .T. ) ;
#108 = ORIENTED_EDGE ( 'NONE', *, *, #163, .F. ) ;
#109 = EDGE_CURVE ( 'NONE', #287, #295, #30, .T. ) ;
#110 = LINE ( 'NONE', #219, #372 ) ;
#111 = EDGE_LOOP ( 'NONE', ( #237, #335, #218, #260 ) ) ;
#112 = PRESENTATION_LAYER_ASSIGNMENT (  '', '', ( #426 ) ) ;
#113 = VERTEX_POINT ( 'NONE', #183 ) ;
#114 = DIRECTION ( 'NONE',  ( 0.000000000000000000, 1.000000000000000000, 0.000000000000000000 ) ) ;
#115 = DIRECTION ( 'NONE',  ( -1.328711381371556758E-16, -0.000000000000000000, -1.000000000000000000 ) ) ;
#116 = AXIS2_PLACEMENT_3D ( 'NONE', #224, #370, #444 ) ;
#117 = ORIENTED_EDGE ( 'NONE', *, *, #429, .T. ) ;
#118 = LINE ( 'NONE', #268, #90 ) ;
#119 = EDGE_LOOP ( 'NONE', ( #342, #105, #85, #217 ) ) ;
#120 = CARTESIAN_POINT ( 'NONE',  ( -33.62501349999999434, 0.000000000000000000, 42.22273249999999223 ) ) ;
#121 = DIRECTION ( 'NONE',  ( 0.000000000000000000, 0.000000000000000000, -1.000000000000000000 ) ) ;
#122 = DIRECTION ( 'NONE',  ( 0.000000000000000000, 1.000000000000000000, 0.000000000000000000 ) ) ;
#123 = ORIENTED_EDGE ( 'NONE', *, *, #334, .F. ) ;
#124 = FACE_BOUND ( 'NONE', #250, .T. ) ;
#125 = CARTESIAN_POINT ( 'NONE',  ( 43.62501349999998723, 0.000000000000000000, -52.22273250000000644 ) ) ;
#126 = EDGE_CURVE ( 'NONE', #440, #287, #180, .T. ) ;
#127 = CIRCLE ( 'NONE', #207, 2.250000000000001776 ) ;
#128 = DIRECTION ( 'NONE',  ( 1.000000000000000000, 0.000000000000000000, 0.000000000000000000 ) ) ;
#129 = LINE ( 'NONE', #91, #366 ) ;
#130 = CARTESIAN_POINT ( 'NONE',  ( 33.62501350000000855, 4.000000000000000000, 42.22273249999999223 ) ) ;
#131 = EDGE_CURVE ( 'NONE', #362, #31, #240, .T. ) ;
#132 = FACE_BOUND ( 'NONE', #292, .T. ) ;
#133 = CARTESIAN_POINT ( 'NONE',  ( -43.62501349999999434, 4.000000000000000000, 52.22273249999999223 ) ) ;
#134 = DIRECTION ( 'NONE',  ( 0.000000000000000000, 1.000000000000000000, 0.000000000000000000 ) ) ;
#135 =( GEOMETRIC_REPRESENTATION_CONTEXT ( 3 ) GLOBAL_UNCERTAINTY_ASSIGNED_CONTEXT ( ( #259 ) ) GLOBAL_UNIT_ASSIGNED_CONTEXT ( ( #192, #86, #186 ) ) REPRESENTATION_CONTEXT ( 'NONE', 'WORKASPACE' ) );
#136 = CARTESIAN_POINT ( 'NONE',  ( 33.62501350000000855, 0.000000000000000000, 39.97273249999999223 ) ) ;
#137 = EDGE_CURVE ( 'NONE', #6, #440, #70, .T. ) ;
#138 = EDGE_CURVE ( 'NONE', #225, #410, #175, .T. ) ;
#139 = DIRECTION ( 'NONE',  ( 1.000000000000000000, 0.000000000000000000, 0.000000000000000000 ) ) ;
#140 = VERTEX_POINT ( 'NONE', #74 ) ;
#141 = CARTESIAN_POINT ( 'NONE',  ( 43.62501349999998723, 4.000000000000000000, -52.22273250000000644 ) ) ;
#142 = VERTEX_POINT ( 'NONE', #106 ) ;
#143 = DIRECTION ( 'NONE',  ( -0.000000000000000000, -1.000000000000000000, -0.000000000000000000 ) ) ;
#144 = EDGE_CURVE ( 'NONE', #340, #31, #338, .T. ) ;
#145 = EDGE_LOOP ( 'NONE', ( #164, #62, #231, #301 ) ) ;
#146 = ORIENTED_EDGE ( 'NONE', *, *, #412, .T. ) ;
#147 = CYLINDRICAL_SURFACE ( 'NONE', #264, 2.250000000000001776 ) ;
#148 = VECTOR ( 'NONE', #353, 1000.000000000000000 ) ;
#149 = ORIENTED_EDGE ( 'NONE', *, *, #38, .F. ) ;
#150 = PRODUCT_DEFINITION_CONTEXT ( 'detailed design', #28, 'design' ) ;
#151 = ORIENTED_EDGE ( 'NONE', *, *, #350, .F. ) ;
#152 = FACE_BOUND ( 'NONE', #179, .T. ) ;
#153 = DIRECTION ( 'NONE',  ( 0.000000000000000000, 1.000000000000000000, 0.000000000000000000 ) ) ;
#154 = ORIENTED_EDGE ( 'NONE', *, *, #157, .T. ) ;
#155 = CARTESIAN_POINT ( 'NONE',  ( 33.62501350000000855, 4.000000000000000000, 44.47273249999999223 ) ) ;
#156 = CIRCLE ( 'NONE', #98, 2.250000000000001776 ) ;
#157 = EDGE_CURVE ( 'NONE', #440, #433, #289, .T. ) ;
#158 = ORIENTED_EDGE ( 'NONE', *, *, #242, .F. ) ;
#159 = DIRECTION ( 'NONE',  ( 0.000000000000000000, 0.000000000000000000, 1.000000000000000000 ) ) ;
#160 = FACE_BOUND ( 'NONE', #29, .T. ) ;
#161 = DIRECTION ( 'NONE',  ( 0.000000000000000000, 0.000000000000000000, -1.000000000000000000 ) ) ;
#162 = DIRECTION ( 'NONE',  ( -0.000000000000000000, -1.000000000000000000, -0.000000000000000000 ) ) ;
#163 = EDGE_CURVE ( 'NONE', #142, #340, #156, .T. ) ;
#164 = ORIENTED_EDGE ( 'NONE', *, *, #138, .T. ) ;
#165 = PLANE ( 'NONE',  #300 ) ;
#166 = ORIENTED_EDGE ( 'NONE', *, *, #181, .F. ) ;
#167 = AXIS2_PLACEMENT_3D ( 'NONE', #92, #276, #428 ) ;
#168 = ADVANCED_BREP_SHAPE_REPRESENTATION ( 'Base', ( #406, #36 ), #316 ) ;
#169 = DIRECTION ( 'NONE',  ( 0.000000000000000000, 1.000000000000000000, 0.000000000000000000 ) ) ;
#170 = PLANE ( 'NONE',  #414 ) ;
#171 = CARTESIAN_POINT ( 'NONE',  ( -43.62501349999999434, 4.000000000000000000, 52.22273249999999223 ) ) ;
#172 = VECTOR ( 'NONE', #190, 1000.000000000000000 ) ;
#173 = AXIS2_PLACEMENT_3D ( 'NONE', #344, #453, #121 ) ;
#174 = ADVANCED_FACE ( 'NONE', ( #483 ), #299, .F. ) ;
#175 = CIRCLE ( 'NONE', #358, 2.250000000000001776 ) ;
#176 = CARTESIAN_POINT ( 'NONE',  ( 33.62501350000000855, 4.000000000000000000, 42.22273249999999223 ) ) ;
#177 = ORIENTED_EDGE ( 'NONE', *, *, #412, .F. ) ;
#178 = DIRECTION ( 'NONE',  ( -0.000000000000000000, -1.000000000000000000, -0.000000000000000000 ) ) ;
#179 = EDGE_LOOP ( 'NONE', ( #39, #474 ) ) ;
#180 = LINE ( 'NONE', #441, #51 ) ;
#181 = EDGE_CURVE ( 'NONE', #295, #437, #110, .T. ) ;
#182 = ORIENTED_EDGE ( 'NONE', *, *, #297, .F. ) ;
#183 = CARTESIAN_POINT ( 'NONE',  ( -33.62501349999998723, 4.000000000000000000, -39.97273250000000644 ) ) ;
#184 = ORIENTED_EDGE ( 'NONE', *, *, #242, .T. ) ;
#185 = ORIENTED_EDGE ( 'NONE', *, *, #7, .T. ) ;
#186 =( NAMED_UNIT ( * ) SI_UNIT ( $, .STERADIAN. ) SOLID_ANGLE_UNIT ( ) );
#187 = DIRECTION ( 'NONE',  ( -0.000000000000000000, -1.000000000000000000, -0.000000000000000000 ) ) ;
#188 = AXIS2_PLACEMENT_3D ( 'NONE', #283, #18, #324 ) ;
#189 = ORIENTED_EDGE ( 'NONE', *, *, #423, .T. ) ;
#190 = DIRECTION ( 'NONE',  ( 1.328711381371556758E-16, 0.000000000000000000, 1.000000000000000000 ) ) ;
#191 = ORIENTED_EDGE ( 'NONE', *, *, #138, .F. ) ;
#192 =( LENGTH_UNIT ( ) NAMED_UNIT ( * ) SI_UNIT ( .MILLI., .METRE. ) );
#193 = PLANE ( 'NONE',  #239 ) ;
#194 = CARTESIAN_POINT ( 'NONE',  ( 33.62501350000000144, 0.000000000000000000, -42.22273250000000644 ) ) ;
#195 = DIRECTION ( 'NONE',  ( -1.328711381371556758E-16, 0.000000000000000000, -1.000000000000000000 ) ) ;
#196 = LINE ( 'NONE', #378, #339 ) ;
#197 = ADVANCED_FACE ( 'NONE', ( #37 ), #147, .F. ) ;
#198 = CARTESIAN_POINT ( 'NONE',  ( -33.62501349999998723, 4.000000000000000000, -42.22273250000000644 ) ) ;
#199 = MECHANICAL_DESIGN_GEOMETRIC_PRESENTATION_REPRESENTATION (  '', ( #426 ), #135 ) ;
#200 =( NAMED_UNIT ( * ) SI_UNIT ( $, .STERADIAN. ) SOLID_ANGLE_UNIT ( ) );
#201 = AXIS2_PLACEMENT_3D ( 'NONE', #306, #377, #195 ) ;
#202 = CARTESIAN_POINT ( 'NONE',  ( -43.62501350000000855, 4.000000000000000000, -52.22273250000000644 ) ) ;
#203 = DIRECTION ( 'NONE',  ( 0.000000000000000000, 0.000000000000000000, 1.000000000000000000 ) ) ;
#204 = DIRECTION ( 'NONE',  ( -0.000000000000000000, -1.000000000000000000, -0.000000000000000000 ) ) ;
#205 = DIRECTION ( 'NONE',  ( -0.000000000000000000, -1.000000000000000000, -0.000000000000000000 ) ) ;
#206 = DIRECTION ( 'NONE',  ( 0.000000000000000000, 0.000000000000000000, -1.000000000000000000 ) ) ;
#207 = AXIS2_PLACEMENT_3D ( 'NONE', #194, #458, #41 ) ;
#208 = CARTESIAN_POINT ( 'NONE',  ( 43.62501349999998723, 4.000000000000000000, -52.22273250000000644 ) ) ;
#209 = EDGE_CURVE ( 'NONE', #332, #437, #262, .T. ) ;
#210 = CARTESIAN_POINT ( 'NONE',  ( -33.62501349999999434, 4.000000000000000000, 42.22273249999999223 ) ) ;
#211 = DIRECTION ( 'NONE',  ( 0.000000000000000000, 1.000000000000000000, 0.000000000000000000 ) ) ;
#212 = ORIENTED_EDGE ( 'NONE', *, *, #447, .T. ) ;
#213 = ORIENTED_EDGE ( 'NONE', *, *, #350, .T. ) ;
#214 = ADVANCED_FACE ( 'NONE', ( #363 ), #463, .F. ) ;
#215 = DIRECTION ( 'NONE',  ( -0.000000000000000000, -1.000000000000000000, -0.000000000000000000 ) ) ;
#216 = PRODUCT_DEFINITION_SHAPE ( 'NONE', 'NONE',  #53 ) ;
#217 = ORIENTED_EDGE ( 'NONE', *, *, #109, .T. ) ;
#218 = ORIENTED_EDGE ( 'NONE', *, *, #75, .T. ) ;
#219 = CARTESIAN_POINT ( 'NONE',  ( -43.62501350000000855, 0.000000000000000000, -52.22273250000000644 ) ) ;
#220 = AXIS2_PLACEMENT_3D ( 'NONE', #298, #114, #304 ) ;
#221 = AXIS2_PLACEMENT_3D ( 'NONE', #346, #273, #44 ) ;
#222 = ORIENTED_EDGE ( 'NONE', *, *, #19, .F. ) ;
#223 = ORIENTED_EDGE ( 'NONE', *, *, #297, .T. ) ;
#224 = CARTESIAN_POINT ( 'NONE',  ( -33.62501349999999434, 0.000000000000000000, 42.22273249999999223 ) ) ;
#225 = VERTEX_POINT ( 'NONE', #243 ) ;
#226 = DIRECTION ( 'NONE',  ( 0.000000000000000000, 0.000000000000000000, 1.000000000000000000 ) ) ;
#227 = ADVANCED_FACE ( 'NONE', ( #249 ), #170, .F. ) ;
#228 = AXIS2_PLACEMENT_3D ( 'NONE', #130, #205, #99 ) ;
#229 = VERTEX_POINT ( 'NONE', #356 ) ;
#230 = CARTESIAN_POINT ( 'NONE',  ( 33.62501350000000855, 4.000000000000000000, 39.97273249999999223 ) ) ;
#231 = ORIENTED_EDGE ( 'NONE', *, *, #382, .F. ) ;
#232 = CARTESIAN_POINT ( 'NONE',  ( 33.62501350000000144, 4.000000000000000000, -39.97273250000000644 ) ) ;
#233 = PLANE ( 'NONE',  #385 ) ;
#234 = CARTESIAN_POINT ( 'NONE',  ( 43.62501349999998723, 4.000000000000000000, -52.22273250000000644 ) ) ;
#235 = ADVANCED_FACE ( 'NONE', ( #278 ), #430, .F. ) ;
#236 = CIRCLE ( 'NONE', #167, 2.250000000000001776 ) ;
#237 = ORIENTED_EDGE ( 'NONE', *, *, #450, .F. ) ;
#238 = ORIENTED_EDGE ( 'NONE', *, *, #456, .F. ) ;
#239 = AXIS2_PLACEMENT_3D ( 'NONE', #202, #267, #309 ) ;
#240 = CIRCLE ( 'NONE', #116, 2.250000000000001776 ) ;
#241 = FACE_OUTER_BOUND ( 'NONE', #102, .T. ) ;
#242 = EDGE_CURVE ( 'NONE', #288, #328, #431, .T. ) ;
#243 = CARTESIAN_POINT ( 'NONE',  ( 33.62501350000000144, 4.000000000000000000, -44.47273250000000644 ) ) ;
#244 = DIRECTION ( 'NONE',  ( 0.000000000000000000, 0.000000000000000000, -1.000000000000000000 ) ) ;
#245 = EDGE_CURVE ( 'NONE', #365, #421, #236, .T. ) ;
#246 = LINE ( 'NONE', #133, #374 ) ;
#247 = CIRCLE ( 'NONE', #188, 2.250000000000001776 ) ;
#248 = DIRECTION ( 'NONE',  ( -0.000000000000000000, -1.000000000000000000, -0.000000000000000000 ) ) ;
#249 = FACE_OUTER_BOUND ( 'NONE', #65, .T. ) ;
#250 = EDGE_LOOP ( 'NONE', ( #361, #265 ) ) ;
#251 = DIRECTION ( 'NONE',  ( -1.000000000000000000, -0.000000000000000000, -0.000000000000000000 ) ) ;
#252 = VERTEX_POINT ( 'NONE', #320 ) ;
#253 = ORIENTED_EDGE ( 'NONE', *, *, #126, .F. ) ;
#254 = DIRECTION ( 'NONE',  ( 0.000000000000000000, 0.000000000000000000, -1.000000000000000000 ) ) ;
#255 = ORIENTED_EDGE ( 'NONE', *, *, #450, .T. ) ;
#256 = ORIENTED_EDGE ( 'NONE', *, *, #7, .F. ) ;
#257 = CARTESIAN_POINT ( 'NONE',  ( 33.62501350000000144, 4.000000000000000000, -42.22273250000000644 ) ) ;
#258 = VECTOR ( 'NONE', #310, 1000.000000000000000 ) ;
#259 = UNCERTAINTY_MEASURE_WITH_UNIT (LENGTH_MEASURE( 1.000000000000000082E-05 ), #192, 'distance_accuracy_value', 'NONE');
#260 = ORIENTED_EDGE ( 'NONE', *, *, #325, .F. ) ;
#261 = CARTESIAN_POINT ( 'NONE',  ( 0.000000000000000000, 4.000000000000000000, 0.000000000000000000 ) ) ;
#262 = LINE ( 'NONE', #409, #323 ) ;
#263 = EDGE_CURVE ( 'NONE', #113, #359, #247, .T. ) ;
#264 = AXIS2_PLACEMENT_3D ( 'NONE', #293, #187, #254 ) ;
#265 = ORIENTED_EDGE ( 'NONE', *, *, #263, .F. ) ;
#266 = DIRECTION ( 'NONE',  ( -0.000000000000000000, -1.000000000000000000, -0.000000000000000000 ) ) ;
#267 = DIRECTION ( 'NONE',  ( 0.000000000000000000, 0.000000000000000000, 1.000000000000000000 ) ) ;
#268 = CARTESIAN_POINT ( 'NONE',  ( -33.62501349999998723, 4.000000000000000000, -39.97273250000000644 ) ) ;
#269 = CARTESIAN_POINT ( 'NONE',  ( 33.62501350000000855, 4.000000000000000000, 39.97273249999999223 ) ) ;
#270 = CARTESIAN_POINT ( 'NONE',  ( 43.62501349999998723, 0.000000000000000000, -52.22273250000000644 ) ) ;
#271 = LINE ( 'NONE', #79, #10 ) ;
#272 = DIRECTION ( 'NONE',  ( 0.000000000000000000, 1.000000000000000000, 0.000000000000000000 ) ) ;
#273 = DIRECTION ( 'NONE',  ( 0.000000000000000000, 1.000000000000000000, 0.000000000000000000 ) ) ;
#274 = FACE_BOUND ( 'NONE', #476, .T. ) ;
#275 = PRODUCT_CONTEXT ( 'NONE', #455, 'mechanical' ) ;
#276 = DIRECTION ( 'NONE',  ( 0.000000000000000000, 1.000000000000000000, 0.000000000000000000 ) ) ;
#277 =( NAMED_UNIT ( * ) PLANE_ANGLE_UNIT ( ) SI_UNIT ( $, .RADIAN. ) );
#278 = FACE_OUTER_BOUND ( 'NONE', #291, .T. ) ;
#279 = ADVANCED_FACE ( 'NONE', ( #354 ), #55, .F. ) ;
#280 = DIRECTION ( 'NONE',  ( 0.000000000000000000, 0.000000000000000000, 1.000000000000000000 ) ) ;
#281 = CARTESIAN_POINT ( 'NONE',  ( -33.62501349999998723, 0.000000000000000000, -42.22273250000000644 ) ) ;
#282 = PRODUCT ( 'Base', 'Base', '', ( #275 ) ) ;
#283 = CARTESIAN_POINT ( 'NONE',  ( -33.62501349999998723, 4.000000000000000000, -42.22273250000000644 ) ) ;
#284 = ORIENTED_EDGE ( 'NONE', *, *, #209, .T. ) ;
#285 = AXIS2_PLACEMENT_3D ( 'NONE', #210, #57, #244 ) ;
#286 = DIRECTION ( 'NONE',  ( -0.000000000000000000, -1.000000000000000000, -0.000000000000000000 ) ) ;
#287 = VERTEX_POINT ( 'NONE', #97 ) ;
#288 = VERTEX_POINT ( 'NONE', #469 ) ;
#289 = LINE ( 'NONE', #141, #24 ) ;
#290 = PRODUCT_DEFINITION_FORMATION_WITH_SPECIFIED_SOURCE ( 'TUTTO', '', #282, .NOT_KNOWN. ) ;
#291 = EDGE_LOOP ( 'NONE', ( #348, #451, #149, #256 ) ) ;
#292 = EDGE_LOOP ( 'NONE', ( #396, #213 ) ) ;
#293 = CARTESIAN_POINT ( 'NONE',  ( 33.62501350000000144, 4.000000000000000000, -42.22273250000000644 ) ) ;
#294 = VECTOR ( 'NONE', #139, 1000.000000000000000 ) ;
#295 = VERTEX_POINT ( 'NONE', #63 ) ;
#296 = ORIENTED_EDGE ( 'NONE', *, *, #400, .T. ) ;
#297 = EDGE_CURVE ( 'NONE', #437, #140, #357, .T. ) ;
#298 = CARTESIAN_POINT ( 'NONE',  ( 33.62501350000000144, 4.000000000000000000, -42.22273250000000644 ) ) ;
#299 = CYLINDRICAL_SURFACE ( 'NONE', #58, 2.250000000000001776 ) ;
#300 = AXIS2_PLACEMENT_3D ( 'NONE', #460, #422, #50 ) ;
#301 = ORIENTED_EDGE ( 'NONE', *, *, #93, .F. ) ;
#302 = PRESENTATION_STYLE_ASSIGNMENT (( #452 ) ) ;
#303 = ORIENTED_EDGE ( 'NONE', *, *, #144, .F. ) ;
#304 = DIRECTION ( 'NONE',  ( 0.000000000000000000, 0.000000000000000000, 1.000000000000000000 ) ) ;
#305 = EDGE_CURVE ( 'NONE', #421, #365, #20, .T. ) ;
#306 = CARTESIAN_POINT ( 'NONE',  ( -43.62501350000000855, 4.000000000000000000, -52.22273250000000644 ) ) ;
#307 = FACE_BOUND ( 'NONE', #418, .T. ) ;
#308 = VECTOR ( 'NONE', #376, 1000.000000000000000 ) ;
#309 = DIRECTION ( 'NONE',  ( 1.000000000000000000, 0.000000000000000000, -0.000000000000000000 ) ) ;
#310 = DIRECTION ( 'NONE',  ( -0.000000000000000000, -1.000000000000000000, -0.000000000000000000 ) ) ;
#311 = FACE_BOUND ( 'NONE', #1, .T. ) ;
#312 = ADVANCED_FACE ( 'NONE', ( #393 ), #315, .F. ) ;
#313 = AXIS2_PLACEMENT_3D ( 'NONE', #281, #211, #391 ) ;
#314 = EDGE_CURVE ( 'NONE', #433, #295, #17, .T. ) ;
#315 = CYLINDRICAL_SURFACE ( 'NONE', #100, 2.250000000000001776 ) ;
#316 =( GEOMETRIC_REPRESENTATION_CONTEXT ( 3 ) GLOBAL_UNCERTAINTY_ASSIGNED_CONTEXT ( ( #336 ) ) GLOBAL_UNIT_ASSIGNED_CONTEXT ( ( #349, #277, #200 ) ) REPRESENTATION_CONTEXT ( 'NONE', 'WORKASPACE' ) );
#317 = CARTESIAN_POINT ( 'NONE',  ( -33.62501349999998723, 4.000000000000000000, -42.22273250000000644 ) ) ;
#318 = DIRECTION ( 'NONE',  ( 0.000000000000000000, 0.000000000000000000, 1.000000000000000000 ) ) ;
#319 = EDGE_CURVE ( 'NONE', #332, #6, #246, .T. ) ;
#320 = CARTESIAN_POINT ( 'NONE',  ( 33.62501350000000144, 0.000000000000000000, -44.47273250000000644 ) ) ;
#321 = CIRCLE ( 'NONE', #443, 2.250000000000001776 ) ;
#322 = DIRECTION ( 'NONE',  ( 1.328711381371556758E-16, 0.000000000000000000, 1.000000000000000000 ) ) ;
#323 = VECTOR ( 'NONE', #215, 1000.000000000000000 ) ;
#324 = DIRECTION ( 'NONE',  ( 0.000000000000000000, 0.000000000000000000, 1.000000000000000000 ) ) ;
#325 = EDGE_CURVE ( 'NONE', #407, #329, #14, .T. ) ;
#326 = EDGE_LOOP ( 'NONE', ( #69, #107, #25, #66 ) ) ;
#327 = CARTESIAN_POINT ( 'NONE',  ( 43.62501349999998723, 4.000000000000000000, -52.22273250000000644 ) ) ;
#328 = VERTEX_POINT ( 'NONE', #136 ) ;
#329 = VERTEX_POINT ( 'NONE', #59 ) ;
#330 = DIRECTION ( 'NONE',  ( 0.000000000000000000, 0.000000000000000000, 1.000000000000000000 ) ) ;
#331 = ORIENTED_EDGE ( 'NONE', *, *, #163, .T. ) ;
#332 = VERTEX_POINT ( 'NONE', #171 ) ;
#333 = CARTESIAN_POINT ( 'NONE',  ( -33.62501349999999434, 4.000000000000000000, 44.47273249999999223 ) ) ;
#334 = EDGE_CURVE ( 'NONE', #365, #288, #360, .T. ) ;
#335 = ORIENTED_EDGE ( 'NONE', *, *, #263, .T. ) ;
#336 = UNCERTAINTY_MEASURE_WITH_UNIT (LENGTH_MEASURE( 1.000000000000000082E-05 ), #349, 'distance_accuracy_value', 'NONE');
#337 = EDGE_LOOP ( 'NONE', ( #223, #368, #448, #284 ) ) ;
#338 = LINE ( 'NONE', #333, #446 ) ;
#339 = VECTOR ( 'NONE', #162, 1000.000000000000000 ) ;
#340 = VERTEX_POINT ( 'NONE', #94 ) ;
#341 = CARTESIAN_POINT ( 'NONE',  ( -43.62501349999999434, 0.000000000000000000, 52.22273249999999223 ) ) ;
#342 = ORIENTED_EDGE ( 'NONE', *, *, #181, .T. ) ;
#343 = CARTESIAN_POINT ( 'NONE',  ( -33.62501349999998723, 0.000000000000000000, -42.22273250000000644 ) ) ;
#344 = CARTESIAN_POINT ( 'NONE',  ( -33.62501349999998723, 4.000000000000000000, -42.22273250000000644 ) ) ;
#345 = FILL_AREA_STYLE_COLOUR ( '', #49 ) ;
#346 = CARTESIAN_POINT ( 'NONE',  ( 33.62501350000000855, 0.000000000000000000, 42.22273249999999223 ) ) ;
#347 = DIRECTION ( 'NONE',  ( 0.000000000000000000, -0.000000000000000000, 1.000000000000000000 ) ) ;
#348 = ORIENTED_EDGE ( 'NONE', *, *, #305, .T. ) ;
#349 =( LENGTH_UNIT ( ) NAMED_UNIT ( * ) SI_UNIT ( .MILLI., .METRE. ) );
#350 = EDGE_CURVE ( 'NONE', #229, #252, #420, .T. ) ;
#351 = DIRECTION ( 'NONE',  ( -1.328711381371556758E-16, -0.000000000000000000, -1.000000000000000000 ) ) ;
#352 = APPLICATION_PROTOCOL_DEFINITION ( 'draft international standard', 'automotive_design', 1998, #455 ) ;
#353 = DIRECTION ( 'NONE',  ( -0.000000000000000000, -1.000000000000000000, -0.000000000000000000 ) ) ;
#354 = FACE_OUTER_BOUND ( 'NONE', #35, .T. ) ;
#355 = VECTOR ( 'NONE', #425, 1000.000000000000000 ) ;
#356 = CARTESIAN_POINT ( 'NONE',  ( 33.62501350000000144, 0.000000000000000000, -39.97273250000000644 ) ) ;
#357 = LINE ( 'NONE', #465, #294 ) ;
#358 = AXIS2_PLACEMENT_3D ( 'NONE', #257, #153, #330 ) ;
#359 = VERTEX_POINT ( 'NONE', #82 ) ;
#360 = LINE ( 'NONE', #26, #148 ) ;
#361 = ORIENTED_EDGE ( 'NONE', *, *, #2, .F. ) ;
#362 = VERTEX_POINT ( 'NONE', #3 ) ;
#363 = FACE_OUTER_BOUND ( 'NONE', #375, .T. ) ;
#364 = ORIENTED_EDGE ( 'NONE', *, *, #473, .T. ) ;
#365 = VERTEX_POINT ( 'NONE', #155 ) ;
#366 = VECTOR ( 'NONE', #386, 1000.000000000000000 ) ;
#367 = LINE ( 'NONE', #404, #73 ) ;
#368 = ORIENTED_EDGE ( 'NONE', *, *, #473, .F. ) ;
#369 = ORIENTED_EDGE ( 'NONE', *, *, #75, .F. ) ;
#370 = DIRECTION ( 'NONE',  ( 0.000000000000000000, 1.000000000000000000, 0.000000000000000000 ) ) ;
#371 = ORIENTED_EDGE ( 'NONE', *, *, #429, .F. ) ;
#372 = VECTOR ( 'NONE', #67, 1000.000000000000000 ) ;
#373 = LINE ( 'NONE', #83, #172 ) ;
#374 = VECTOR ( 'NONE', #61, 1000.000000000000000 ) ;
#375 = EDGE_LOOP ( 'NONE', ( #303, #212, #296, #371 ) ) ;
#376 = DIRECTION ( 'NONE',  ( -0.000000000000000000, -1.000000000000000000, -0.000000000000000000 ) ) ;
#377 = DIRECTION ( 'NONE',  ( 1.000000000000000000, 0.000000000000000000, -1.328711381371556758E-16 ) ) ;
#378 = CARTESIAN_POINT ( 'NONE',  ( -33.62501349999999434, 4.000000000000000000, 39.97273249999999223 ) ) ;
#379 = ORIENTED_EDGE ( 'NONE', *, *, #131, .F. ) ;
#380 = PLANE ( 'NONE',  #60 ) ;
#381 = FACE_OUTER_BOUND ( 'NONE', #337, .T. ) ;
#382 = EDGE_CURVE ( 'NONE', #252, #229, #127, .T. ) ;
#383 = AXIS2_PLACEMENT_3D ( 'NONE', #120, #78, #226 ) ;
#384 = LINE ( 'NONE', #269, #258 ) ;
#385 = AXIS2_PLACEMENT_3D ( 'NONE', #48, #161, #416 ) ;
#386 = DIRECTION ( 'NONE',  ( -0.000000000000000000, -1.000000000000000000, -0.000000000000000000 ) ) ;
#387 = VECTOR ( 'NONE', #115, 1000.000000000000000 ) ;
#388 = DIRECTION ( 'NONE',  ( 0.000000000000000000, 0.000000000000000000, -1.000000000000000000 ) ) ;
#389 = CARTESIAN_POINT ( 'NONE',  ( 33.62501350000000855, 0.000000000000000000, 42.22273249999999223 ) ) ;
#390 = CARTESIAN_POINT ( 'NONE',  ( 33.62501350000000855, 4.000000000000000000, 42.22273249999999223 ) ) ;
#391 = DIRECTION ( 'NONE',  ( 0.000000000000000000, 0.000000000000000000, 1.000000000000000000 ) ) ;
#392 = AXIS2_PLACEMENT_3D ( 'NONE', #390, #23, #206 ) ;
#393 = FACE_OUTER_BOUND ( 'NONE', #34, .T. ) ;
#394 = ADVANCED_FACE ( 'NONE', ( #152, #307, #417, #124, #160 ), #380, .T. ) ;
#395 = DIRECTION ( 'NONE',  ( 0.000000000000000000, 1.000000000000000000, 0.000000000000000000 ) ) ;
#396 = ORIENTED_EDGE ( 'NONE', *, *, #382, .T. ) ;
#397 = EDGE_LOOP ( 'NONE', ( #76, #255, #52, #369 ) ) ;
#398 = DIRECTION ( 'NONE',  ( 0.000000000000000000, 0.000000000000000000, -1.000000000000000000 ) ) ;
#399 = ORIENTED_EDGE ( 'NONE', *, *, #38, .T. ) ;
#400 = EDGE_CURVE ( 'NONE', #142, #362, #196, .T. ) ;
#401 = CARTESIAN_POINT ( 'NONE',  ( 33.62501350000000144, 4.000000000000000000, -42.22273250000000644 ) ) ;
#402 = ORIENTED_EDGE ( 'NONE', *, *, #245, .T. ) ;
#403 = CIRCLE ( 'NONE', #466, 2.250000000000001776 ) ;
#404 = CARTESIAN_POINT ( 'NONE',  ( 33.62501350000000144, 4.000000000000000000, -44.47273250000000644 ) ) ;
#405 = CLOSED_SHELL ( 'NONE', ( #312, #235, #56, #174, #394, #467, #27, #15, #227, #54, #197, #462, #279, #214 ) ) ;
#406 = MANIFOLD_SOLID_BREP ( 'Estrusione-Estrusione2', #405 ) ;
#407 = VERTEX_POINT ( 'NONE', #482 ) ;
#408 = DIRECTION ( 'NONE',  ( 0.000000000000000000, 0.000000000000000000, 1.000000000000000000 ) ) ;
#409 = CARTESIAN_POINT ( 'NONE',  ( -43.62501349999999434, 4.000000000000000000, 52.22273249999999223 ) ) ;
#410 = VERTEX_POINT ( 'NONE', #232 ) ;
#411 = FILL_AREA_STYLE ('',( #345 ) ) ;
#412 = EDGE_CURVE ( 'NONE', #410, #225, #71, .T. ) ;
#413 = CARTESIAN_POINT ( 'NONE',  ( -33.62501349999999434, 0.000000000000000000, 44.47273249999999223 ) ) ;
#414 = AXIS2_PLACEMENT_3D ( 'NONE', #208, #464, #322 ) ;
#415 = CARTESIAN_POINT ( 'NONE',  ( 33.62501350000000144, 4.000000000000000000, -39.97273250000000644 ) ) ;
#416 = DIRECTION ( 'NONE',  ( -1.000000000000000000, 0.000000000000000000, -0.000000000000000000 ) ) ;
#417 = FACE_OUTER_BOUND ( 'NONE', #326, .T. ) ;
#418 = EDGE_LOOP ( 'NONE', ( #191, #177 ) ) ;
#419 = DIRECTION ( 'NONE',  ( 0.000000000000000000, 1.000000000000000000, 0.000000000000000000 ) ) ;
#420 = CIRCLE ( 'NONE', #481, 2.250000000000001776 ) ;
#421 = VERTEX_POINT ( 'NONE', #230 ) ;
#422 = DIRECTION ( 'NONE',  ( 0.000000000000000000, 1.000000000000000000, 0.000000000000000000 ) ) ;
#423 = EDGE_CURVE ( 'NONE', #329, #407, #403, .T. ) ;
#424 = CARTESIAN_POINT ( 'NONE',  ( 33.62501350000000144, 0.000000000000000000, -42.22273250000000644 ) ) ;
#425 = DIRECTION ( 'NONE',  ( -1.000000000000000000, -0.000000000000000000, -0.000000000000000000 ) ) ;
#426 = STYLED_ITEM ( 'NONE', ( #302 ), #406 ) ;
#427 = AXIS2_PLACEMENT_3D ( 'NONE', #198, #11, #159 ) ;
#428 = DIRECTION ( 'NONE',  ( 0.000000000000000000, 0.000000000000000000, 1.000000000000000000 ) ) ;
#429 = EDGE_CURVE ( 'NONE', #31, #362, #95, .T. ) ;
#430 = CYLINDRICAL_SURFACE ( 'NONE', #392, 2.250000000000001776 ) ;
#431 = CIRCLE ( 'NONE', #87, 2.250000000000001776 ) ;
#432 = CARTESIAN_POINT ( 'NONE',  ( -43.62501350000000855, 0.000000000000000000, -52.22273250000000644 ) ) ;
#433 = VERTEX_POINT ( 'NONE', #270 ) ;
#434 = DIRECTION ( 'NONE',  ( 0.000000000000000000, 1.000000000000000000, 0.000000000000000000 ) ) ;
#435 = EDGE_CURVE ( 'NONE', #287, #332, #373, .T. ) ;
#436 = ORIENTED_EDGE ( 'NONE', *, *, #314, .T. ) ;
#437 = VERTEX_POINT ( 'NONE', #341 ) ;
#438 = DIRECTION ( 'NONE',  ( 0.000000000000000000, 0.000000000000000000, 1.000000000000000000 ) ) ;
#439 = EDGE_LOOP ( 'NONE', ( #104, #117 ) ) ;
#440 = VERTEX_POINT ( 'NONE', #234 ) ;
#441 = CARTESIAN_POINT ( 'NONE',  ( -43.62501350000000855, 4.000000000000000000, -52.22273250000000644 ) ) ;
#442 = ORIENTED_EDGE ( 'NONE', *, *, #137, .F. ) ;
#443 = AXIS2_PLACEMENT_3D ( 'NONE', #47, #122, #449 ) ;
#444 = DIRECTION ( 'NONE',  ( 0.000000000000000000, 0.000000000000000000, 1.000000000000000000 ) ) ;
#445 = CIRCLE ( 'NONE', #427, 2.250000000000001776 ) ;
#446 = VECTOR ( 'NONE', #472, 1000.000000000000000 ) ;
#447 = EDGE_CURVE ( 'NONE', #340, #142, #321, .T. ) ;
#448 = ORIENTED_EDGE ( 'NONE', *, *, #319, .F. ) ;
#449 = DIRECTION ( 'NONE',  ( 0.000000000000000000, 0.000000000000000000, 1.000000000000000000 ) ) ;
#450 = EDGE_CURVE ( 'NONE', #113, #407, #118, .T. ) ;
#451 = ORIENTED_EDGE ( 'NONE', *, *, #334, .T. ) ;
#452 = SURFACE_STYLE_USAGE ( .BOTH. , #43 ) ;
#453 = DIRECTION ( 'NONE',  ( -0.000000000000000000, -1.000000000000000000, -0.000000000000000000 ) ) ;
#454 = CIRCLE ( 'NONE', #221, 2.250000000000001776 ) ;
#455 = APPLICATION_CONTEXT ( 'automotive_design' ) ;
#456 = EDGE_CURVE ( 'NONE', #410, #229, #81, .T. ) ;
#457 = FACE_OUTER_BOUND ( 'NONE', #397, .T. ) ;
#458 = DIRECTION ( 'NONE',  ( 0.000000000000000000, 1.000000000000000000, 0.000000000000000000 ) ) ;
#459 = LINE ( 'NONE', #125, #96 ) ;
#460 = CARTESIAN_POINT ( 'NONE',  ( 0.000000000000000000, 0.000000000000000000, 0.000000000000000000 ) ) ;
#461 = APPLICATION_PROTOCOL_DEFINITION ( 'draft international standard', 'automotive_design', 1998, #28 ) ;
#462 = ADVANCED_FACE ( 'NONE', ( #45 ), #5, .F. ) ;
#463 = CYLINDRICAL_SURFACE ( 'NONE', #285, 2.250000000000001776 ) ;
#464 = DIRECTION ( 'NONE',  ( -1.000000000000000000, 0.000000000000000000, 1.328711381371556758E-16 ) ) ;
#465 = CARTESIAN_POINT ( 'NONE',  ( -43.62501349999999434, 0.000000000000000000, 52.22273249999999223 ) ) ;
#466 = AXIS2_PLACEMENT_3D ( 'NONE', #343, #419, #408 ) ;
#467 = ADVANCED_FACE ( 'NONE', ( #241, #132, #274, #311, #12 ), #165, .F. ) ;
#468 = VECTOR ( 'NONE', #178, 1000.000000000000000 ) ;
#469 = CARTESIAN_POINT ( 'NONE',  ( 33.62501350000000855, 0.000000000000000000, 44.47273249999999223 ) ) ;
#470 = DIRECTION ( 'NONE',  ( 0.000000000000000000, 0.000000000000000000, 1.000000000000000000 ) ) ;
#471 = ORIENTED_EDGE ( 'NONE', *, *, #157, .F. ) ;
#472 = DIRECTION ( 'NONE',  ( -0.000000000000000000, -1.000000000000000000, -0.000000000000000000 ) ) ;
#473 = EDGE_CURVE ( 'NONE', #6, #140, #129, .T. ) ;
#474 = ORIENTED_EDGE ( 'NONE', *, *, #245, .F. ) ;
#475 = DIRECTION ( 'NONE',  ( -0.000000000000000000, -1.000000000000000000, -0.000000000000000000 ) ) ;
#476 = EDGE_LOOP ( 'NONE', ( #189, #480 ) ) ;
#477 = EDGE_LOOP ( 'NONE', ( #238, #146, #4, #151 ) ) ;
#478 = CARTESIAN_POINT ( 'NONE',  ( -33.62501349999999434, 4.000000000000000000, 42.22273249999999223 ) ) ;
#479 = ORIENTED_EDGE ( 'NONE', *, *, #447, .F. ) ;
#480 = ORIENTED_EDGE ( 'NONE', *, *, #325, .T. ) ;
#481 = AXIS2_PLACEMENT_3D ( 'NONE', #424, #169, #318 ) ;
#482 = CARTESIAN_POINT ( 'NONE',  ( -33.62501349999998723, 0.000000000000000000, -39.97273250000000644 ) ) ;
#483 = FACE_OUTER_BOUND ( 'NONE', #145, .T. ) ;
ENDSEC;
END-ISO-10303-21;
